# xmcd CD database file
#
# Track frame offsets:
#	150
#	27108
#	48565
#	67965
#	84263
#	107415
#	134080
#	154183
#	171115
#	195300
#	216335
#	242205
#	265943
#	292078
#
# Disc length: 4221 seconds
#
# Revision: 1
# Processed by: cddbd v1.5.1PL0 Copyright (c) Steve Scherf et al.
# Submitted via: CDex 1.51
#
DISCID=c8107b0e
DTITLE=THE COLLECTORS - GOLD TOP -The Best of The Collectors
DYEAR=1995
DGENRE=Rock
TTITLE0=世界を止めて
TTITLE1=Good-bye
TTITLE2=素晴らしき人生
TTITLE3=SEE-SAW (95MIX VERSION)
TTITLE4=U・F・O
TTITLE5=あてのない船
TTITLE6=MOON LOVE CHILD
TTITLE7=カメレオン・ダイナマイト (95MIX VERSION)
TTITLE8=明治通りをよこぎって (95MIX VERSION)
TTITLE9=恋をしようよ
TTITLE10=SUMMER OF LOVE
TTITLE11=ザ･バラッド・オブ・ロンサム・ジョージ
TTITLE12=Dreamin'
TTITLE13=愛ある世界
EXTD=YEAR: 1995
EXTT0=
EXTT1=
EXTT2=
EXTT3=
EXTT4=
EXTT5=
EXTT6=
EXTT7=
EXTT8=
EXTT9=
EXTT10=
EXTT11=
EXTT12=
EXTT13=
PLAYORDER=
